<svg xmlns="http://www.w3.org/2000/svg" width="100" height="100" viewBox="0 0 188.101 187.854"><path d="M33.494 310.327c-.7-.37-1.167-.88-1.504-1.642-.472-1.07-.49-4.191-.502-91.865-.013-85.614.012-90.81.445-91.673.253-.503.864-1.185 1.358-1.515l.9-.6h91.312c88.57 0 91.34.014 92.234.492.507.271 1.13.847 1.383 1.279.437.743.462 5.728.466 92.131.004 84.886-.026 91.399-.437 92.095-.243.411-.886.998-1.428 1.302l-.986.554-91.113-.011c-90.952-.012-91.115-.013-92.128-.548m81.845-8.716c-17.424-2.617-32.494-8.21-40.359-14.98-3.05-2.627-4.744-5.155-5.937-8.865-.374-1.163-.785-1.909-1.203-2.182-1.264-.829-4.072-3.644-4.848-4.86-1.441-2.262-2.358-7.314-1.878-10.348.601-3.803 3.862-8.309 8.062-11.143l1.882-1.27.88-3.398c7.91-30.532 24.344-63.877 41.774-84.757 5.134-6.15 14.818-15.236 19.804-18.581a41 41 0 0 1 3.697-2.163c5.382-2.7 10.37-2.293 12.388 1.012 1.208 1.978 1.216 4.085.042 10.075-1.72 8.772-1.887 14.272-.6 19.85 1.227 5.317 3.765 12.09 7.626 20.345 5.778 12.356 11.698 26.746 15.736 38.254 2.161 6.16 2.894 8.52 4.44 14.293.68 2.544 1.282 4.768 1.338 4.943.056.176.613.58 1.238.898 3.312 1.684 7.092 5.035 8.244 7.309 1.022 2.017 1.578 4.266 1.587 6.424.009 2.205-.95 7.006-1.693 8.478-.549 1.088-2.13 2.601-4.277 4.096-1.399.974-1.571 1.211-2.32 3.195-1.591 4.212-4.009 7.371-7.842 10.248-6.027 4.523-14.24 8.108-24.678 10.771-3.39.865-6.361 1.43-14.318 2.72-.363.06 16.782.094 38.1.077l38.762-.03V131.63H40.33l-.067 85.262-.066 85.262 39.224-.023 39.225-.024zm17.6-8.458c20.509-1.311 35.895-7.462 40.116-16.036.789-1.603.888-2.046.881-3.93-.01-2.564-.594-3.948-2.59-6.133-8.966-9.81-41.171-14.468-68.31-9.881-15.383 2.6-25.026 7.354-27.015 13.32-.609 1.824-.408 4.391.495 6.347 1.332 2.884 5.56 6.574 10.172 8.88 11.295 5.645 29.198 8.523 46.25 7.433" style="fill:#000" transform="translate(-31.485 -123.031)"/></svg>